<?xml version="1.0" encoding="UTF-8"?>
<svg width="20px" height="20px" viewBox="0 0 20 20" version="1.1" xmlns="http://www.w3.org/2000/svg" xmlns:xlink="http://www.w3.org/1999/xlink">
    <title>Spyglasses Icon</title>
    <g id="Page-1" stroke="none" stroke-width="1" fill="none" fill-rule="evenodd">
        <g id="spyglasses-icon" fill="#FFFFFF" fill-rule="nonzero">
            <path d="M14.7157018,13.5979085 C14.6221633,13.7204427 14.4408744,13.7320827 14.331663,13.6232203 L14.3316329,13.6232203 C14.2418354,13.5337329 14.2315207,13.3917505 14.3084198,13.2910407 C15.9296184,11.1676915 15.7685924,8.11576 13.8239532,6.17770508 C12.0149386,4.37482169 9.23874837,4.11033898 7.14512415,5.38288678 C7.16097048,5.54731797 7.10575231,5.71723525 6.97939088,5.84311661 C6.72811912,6.09353085 6.30215395,6.06372068 6.09251687,5.75364949 C5.96238531,5.56116339 5.96590211,5.30093831 6.10014211,5.11129492 C6.28512218,4.84996542 6.62661388,4.7972061 6.87573701,4.95146983 C9.1665234,3.55655797 12.205358,3.84391932 14.185489,5.81740746 C15.2609398,6.88921424 15.8367639,8.27234915 15.9149959,9.67822712 L19.9382642,9.67822712 C19.8662131,9.07361424 19.5997729,8.48757763 19.1342671,8.02364 L11.9717407,0.885386441 C10.8702659,-0.212348475 9.0844083,-0.212348475 7.9829085,0.885386441 L0.82038102,8.02364 C0.35487585,8.48757763 0.0884055102,9.07361424 0.0163840136,9.67822712 L4.04016401,9.67822712 C4.10501701,8.52537017 4.50393782,7.38776949 5.23894639,6.42465559 C5.33245476,6.30215525 5.51377483,6.29051932 5.62301531,6.39938102 C5.71278265,6.48886441 5.72312748,6.63084678 5.64622946,6.73155729 C4.0250298,8.85490576 4.18608163,11.9068373 6.13069497,13.8448922 C7.9397085,15.6477756 10.7158749,15.9122624 12.809525,14.6397146 C12.7936777,14.4753125 12.8489218,14.3053661 12.9752563,14.1794847 C13.226529,13.9290671 13.6524953,13.9588766 13.8621303,14.2689519 C13.9922629,14.4614339 13.9887471,14.7216963 13.8544801,14.9113356 C13.6695011,15.1726325 13.3280343,15.2254244 13.0789112,15.0711647 C10.7881248,16.4660441 7.74932034,16.1786447 5.76915925,14.2052271 C4.69370939,13.1333837 4.11788422,11.7502481 4.03965333,10.3443708 L0.0163840136,10.3443708 C0.0884055102,10.9489831 0.35487585,11.5350237 0.82038102,11.9989573 L7.9829085,19.1372115 C9.0844083,20.2349458 10.8702659,20.2349458 11.9717407,19.1372115 L19.1342671,11.9989573 C19.5997729,11.5350237 19.8662437,10.9489831 19.9382642,10.3443708 L15.9144852,10.3443708 C15.8496312,11.4972651 15.4507093,12.6348278 14.7157018,13.5979085 Z M11.8077087,11.8355071 C10.7968264,12.8429681 9.15782177,12.8429681 8.14693946,11.8355071 C7.13599796,10.8280176 7.13599796,9.19458441 8.14693946,8.18709017 C9.15782177,7.17962983 10.7968264,7.17962983 11.8077087,8.18709017 C12.8186201,9.19458441 12.8186201,10.8280176 11.8077087,11.8355071 Z" id="path51"></path>
        </g>
    </g>
</svg>